<svg viewBox="0 0 200 200" xmlns="http://www.w3.org/2000/svg" id="图层_1"><defs><style>.cls-1{fill:#4f7c40;}.cls-2{fill:#3d7477;}.cls-2,.cls-5,.cls-7{stroke:#2f5c5c;stroke-miterlimit:10;}.cls-3{fill:#426e35;}.cls-4{fill:#f6d15c;}.cls-5{fill:none;}.cls-6{fill:#84af70;}.cls-7{fill:#10a5a5;}.cls-8{fill:#348039;}.cls-9{fill:#ecbb33;}</style></defs><title>未标题-2</title><polygon points="156.97 34.31 145.84 55.19 163.77 51.71 169.71 34.31 156.97 34.31" class="cls-1"></polygon><polygon points="27.76 72.18 164.29 49.88 142.38 126.88 39.75 126.88 27.76 72.18" class="cls-2"></polygon><circle r="12.57" cy="31.33" cx="161.7" class="cls-3"></circle><rect height="23.03" width="22.14" y="126.88" x="120.24" class="cls-1"></rect><polygon points="35.98 150.51 142.38 143.9 142.38 158.2 35.98 158.2 35.98 150.51" class="cls-1"></polygon><circle r="12.3" cy="168.81" cx="55.05" class="cls-3"></circle><circle r="12.3" cy="168.81" cx="130.7" class="cls-3"></circle><polygon points="46.09 32.7 38.37 56.45 64.54 59.91 66.96 48.73 46.09 32.7" class="cls-4"></polygon><polygon points="89.45 24.63 76.19 49.88 82.82 51.49 102.37 30.85 89.45 24.63" class="cls-4"></polygon><polygon points="66.16 35.93 71.23 33.27 66.96 16.09 58.09 22.55 66.16 35.93" class="cls-4"></polygon><line y2="80" x2="155.72" y1="97.63" x1="33.34" class="cls-5"></line><line y2="92.43" x2="152.19" y1="107.38" x1="35.47" class="cls-5"></line><line y2="107.38" x2="147.93" y1="117.2" x1="37.63" class="cls-5"></line><line y2="68.42" x2="159.02" y1="88.81" x1="31.4" class="cls-5"></line><line y2="59.01" x2="161.7" y1="80" x1="29.47" class="cls-5"></line><line y2="126.88" x2="47.59" y1="70.44" x1="38.37" class="cls-5"></line><line y2="126.88" x2="55.05" y1="68.64" x1="49.42" class="cls-5"></line><line y2="126.88" x2="63.04" y1="67.22" x1="58.08" class="cls-5"></line><line y2="126.88" x2="136.16" y1="51.28" x1="155.72" class="cls-5"></line><line y2="126.88" x2="127.16" y1="52.88" x1="145.94" class="cls-5"></line><line y2="126.88" x2="98.56" y1="59.71" x1="104.1" class="cls-5"></line><line y2="126.88" x2="72.27" y1="65.77" x1="66.96" class="cls-5"></line><line y2="126.88" x2="78.64" y1="64.45" x1="75.09" class="cls-5"></line><line y2="126.88" x2="118.4" y1="54.81" x1="134.11" class="cls-5"></line><line y2="126.88" x2="110.67" y1="57.07" x1="120.24" class="cls-5"></line><line y2="127.52" x2="104.1" y1="58.53" x1="111.32" class="cls-5"></line><line y2="126.88" x2="85.88" y1="63.02" x1="83.81" class="cls-5"></line><line y2="126.88" x2="91.41" y1="61.56" x1="92.78" class="cls-5"></line><polygon points="156.97 34.31 145.84 55.19 163.77 51.71 169.71 34.31 156.97 34.31" class="cls-6"></polygon><polygon points="27.76 72.18 164.29 49.88 142.38 126.88 39.75 126.88 27.76 72.18" class="cls-7"></polygon><circle r="12.57" cy="31.33" cx="161.7" class="cls-8"></circle><rect height="23.03" width="22.14" y="126.88" x="120.24" class="cls-6"></rect><polygon points="35.98 150.51 142.38 143.9 142.38 158.2 35.98 158.2 35.98 150.51" class="cls-6"></polygon><circle r="12.3" cy="168.81" cx="55.05" class="cls-8"></circle><circle r="12.3" cy="168.81" cx="130.7" class="cls-8"></circle><polygon points="46.09 32.7 38.37 56.45 64.54 59.91 66.96 48.73 46.09 32.7" class="cls-9"></polygon><polygon points="89.45 24.63 76.19 49.88 82.82 51.49 102.37 30.85 89.45 24.63" class="cls-9"></polygon><polygon points="66.16 35.93 71.23 33.27 66.96 16.09 58.09 22.55 66.16 35.93" class="cls-9"></polygon><line y2="80" x2="155.72" y1="97.63" x1="33.34" class="cls-5"></line><line y2="92.43" x2="152.19" y1="107.38" x1="35.47" class="cls-5"></line><line y2="107.38" x2="147.93" y1="117.2" x1="37.63" class="cls-5"></line><line y2="68.42" x2="159.02" y1="88.81" x1="31.4" class="cls-5"></line><line y2="59.01" x2="161.7" y1="80" x1="29.47" class="cls-5"></line><line y2="126.88" x2="47.59" y1="70.44" x1="38.37" class="cls-5"></line><line y2="126.88" x2="55.05" y1="68.64" x1="49.42" class="cls-5"></line><line y2="126.88" x2="63.04" y1="67.22" x1="58.08" class="cls-5"></line><line y2="126.88" x2="136.16" y1="51.28" x1="155.72" class="cls-5"></line><line y2="126.88" x2="127.16" y1="52.88" x1="145.94" class="cls-5"></line><line y2="126.88" x2="98.56" y1="59.71" x1="104.1" class="cls-5"></line><line y2="126.88" x2="72.27" y1="65.77" x1="66.96" class="cls-5"></line><line y2="126.88" x2="78.64" y1="64.45" x1="75.09" class="cls-5"></line><line y2="126.88" x2="118.4" y1="54.81" x1="134.11" class="cls-5"></line><line y2="126.88" x2="110.67" y1="57.07" x1="120.24" class="cls-5"></line><line y2="127.52" x2="104.1" y1="58.53" x1="111.32" class="cls-5"></line><line y2="126.88" x2="85.88" y1="63.02" x1="83.81" class="cls-5"></line><line y2="126.88" x2="91.41" y1="61.56" x1="92.78" class="cls-5"></line></svg>