<?xml version="1.0" encoding="UTF-8"?>
<svg width="513px" height="780px" viewBox="0 0 513 780" version="1.1" xmlns="http://www.w3.org/2000/svg" xmlns:xlink="http://www.w3.org/1999/xlink">
    <!-- Generator: Sketch 60.1 (88133) - https://sketch.com -->
    <title>手机</title>
    <desc>Created with Sketch.</desc>
    <defs>
        <path d="M359.701599,0.119088724 C388.515631,5.43308354 405.140127,25.9628886 409.57509,61.708504 C414.010053,97.4541194 430.283338,299.605928 458.394947,668.163931 C460.798455,705.295748 444.525169,724.150407 409.57509,724.727908 C357.149971,725.594161 78.5341322,723.861656 42.7155758,724.727908 C6.89701943,725.594161 -3.52742919,723.861656 0.991299386,673.799613 C4.0037851,640.424917 25.5654134,429.712514 65.6761843,41.6624024 C72.7349524,13.9668599 88.0458569,0.119088724 111.608898,0.119088724 C119.430353,0.119088724 133.767397,0.119088724 154.620028,0.119088724 C160.096033,0.119088724 160.00448,16.8282809 168.574202,16.8282809 C195.368862,16.8282809 254.562153,16.8282809 312.113095,16.8282809 C320.302609,16.8282809 317.728392,0.119088724 326.318838,0.119088724 C333.431623,0.119088724 344.559209,0.119088724 359.701599,0.119088724 Z" id="path-1"></path>
        <path d="M149.88182,0 L304.570702,0 C310.556919,0 313.550027,4.18229408 313.550027,12.5468822 C313.550027,20.9114704 316.532186,58.3004172 322.496505,124.713723 C322.64155,130.457387 319.202667,133.392127 312.179855,133.517941 C301.123781,133.517941 246.05634,133.517941 146.977532,133.517941 L8.78307271,133.517941 C3.02953082,132.689069 0.221192806,129.75433 0.35805867,124.713723 C0.35805867,117.098743 3.60236567,77.8060512 10.0909797,6.83564743 C10.5395317,2.27854914 13.963191,0 20.3619577,0 C26.7607244,0 69.9340118,0 149.88182,0 Z" id="path-3"></path>
        <path d="M170.649098,0 L346.990617,0 C353.814757,0 357.226827,4.80676743 357.226827,14.4203023 C357.226827,24.0338372 360.626415,67.0054619 367.425592,143.335177 C367.59094,149.936448 363.670697,153.309384 355.664864,153.453985 C343.061213,153.453985 280.285685,153.453985 167.338281,153.453985 L9.79999809,153.453985 C3.24110191,152.501351 0.0396656698,149.128415 0.195689387,143.335177 C0.195689387,134.583177 3.89411954,89.4235522 11.2909798,7.8563025 C11.8023181,2.6187675 15.7052055,0 22.999642,0 C30.2940786,0 79.510564,0 170.649098,0 Z" id="path-5"></path>
        <ellipse id="path-7" cx="12.3358489" cy="12.2522692" rx="12.3358489" ry="12.2522692"></ellipse>
        <ellipse id="path-9" cx="13.0793313" cy="12.9881096" rx="13.0793313" ry="12.9881096"></ellipse>
    </defs>
    <g id="页面-1" stroke="none" stroke-width="1" fill="none" fill-rule="evenodd">
        <g id="画板" transform="translate(-458.000000, -6107.000000)">
            <g id="手机" transform="translate(458.000000, 6107.000000)">
                <path d="M402.701286,15 C434.764072,20.6100698 453.262966,42.2837154 458.197966,80.0209367 C463.132967,117.758158 481.24105,331.173076 512.522217,720.26569 C516.552487,760.076023 495.085199,779.98119 448.120352,779.98119 C401.155505,779.98119 267.115001,779.98119 45.9988395,779.98119 C12.2839552,780.652189 -2.89741656,763.370587 0.454724135,728.136384 C3.80686483,692.902181 28.8302158,469.809368 75.5247771,58.8579447 C83.3794148,29.6193149 100.41661,15 126.636362,15 C152.856114,15 244.877755,15 402.701286,15 Z" id="路径-244备份" fill="#7C73FF"></path>
                <path d="M402.701286,0 C434.764072,5.61006983 453.262966,27.2837154 458.197966,65.0209367 C463.132967,102.758158 481.24105,316.173076 512.522217,705.26569 C516.552487,745.076023 495.085199,764.98119 448.120352,764.98119 C401.155505,764.98119 267.115001,764.98119 45.9988395,764.98119 C12.2839552,765.652189 -2.89741656,748.370587 0.454724135,713.136384 C3.80686483,677.902181 28.8302158,454.809368 75.5247771,43.8579447 C83.3794148,14.6193149 100.41661,0 126.636362,0 C152.856114,0 244.877755,0 402.701286,0 Z" id="路径-244" fill="#5B5173"></path>
                <circle id="椭圆形" fill="#0E0E0E" cx="227" cy="23" r="5"></circle>
                <rect id="矩形" fill="#0E0E0E" x="237" y="18" width="72" height="8" rx="4"></rect>
                <g id="路径-20" transform="translate(26.000000, 17.000000)">
                    <mask id="mask-2" fill="white">
                        <use xlink:href="#path-1"></use>
                    </mask>
                    <use id="蒙版" fill="#F0F9FB" xlink:href="#path-1"></use>
                    <path d="M20.3100319,468.562508 L68.6674609,45.0837742 C73.3008622,20.5251071 84.7639599,6.89132605 103.056754,4.18243112 L152.321395,4.03991328 C155.965508,15.2950969 161.42152,20.9226887 168.68943,20.9226887 L310.337955,20.4378486 C316.070092,18.7164566 319.718912,15.6215839 321.284415,11.1532303 L323.734941,4.03991328 L361.061161,4.18243112 C384.194424,11.3238177 398.004448,26.1101325 402.491231,48.5413756 C405.093289,61.7655331 416.418625,175.092307 436.46724,388.521698 L449.541955,358.566681 L405.428277,11.1532303 L378.169521,-4.36863947 L80.0701983,-4.36863947 L58.6090754,37.6492655 L20.3100319,468.562508 Z" fill="#AAD7E1" mask="url(#mask-2)"></path>
                </g>
                <path d="M144.006107,126.401274 L144.006107,124.719745 L140.56369,124.719745 C140.340398,124.089172 140.098498,123.515924 139.875207,123 L138.051656,123.305732 C138.330771,123.745223 138.591278,124.22293 138.81457,124.719745 L135.502407,124.719745 L135.502407,126.401274 L144.006107,126.401274 Z M150.556003,140.866242 L150.556003,130.853503 L152.342338,130.853503 L152.342338,129.11465 L146.592571,129.11465 L146.592571,126.019108 C148.527768,125.88535 150.295495,125.541401 151.895754,124.968153 L151.039802,123.363057 C149.216251,124.089172 147.169409,124.490446 144.880667,124.528662 L144.880667,132.783439 C144.806236,135.630573 144.229399,137.847134 143.168762,139.452229 L144.415475,140.828025 C145.773834,138.821656 146.499533,136.146497 146.592571,132.783439 L146.592571,130.853503 L148.82549,130.853503 L148.82549,140.866242 L150.556003,140.866242 Z M138.833178,140.923567 C140.061283,140.923567 140.675336,140.350318 140.675336,139.203822 L140.675336,134.082803 L143.801423,134.082803 L143.801423,132.43949 L140.675336,132.43949 L140.675336,130.719745 L144.117753,130.719745 L144.117753,129.057325 L142.219772,129.057325 C142.498886,128.484076 142.759394,127.853503 142.982686,127.146497 L141.401035,126.573248 C141.177743,127.433121 140.917235,128.254777 140.619513,129.057325 L138.851785,129.057325 C138.591278,128.101911 138.293556,127.280255 137.995833,126.592357 L136.451397,127.184713 C136.767728,127.757962 137.046842,128.388535 137.288742,129.057325 L135.31633,129.057325 L135.31633,130.719745 L138.926216,130.719745 L138.926216,132.43949 L135.614053,132.43949 L135.614053,134.082803 L138.926216,134.082803 L138.926216,138.783439 C138.926216,139.165605 138.702924,139.356688 138.25634,139.356688 C138.014441,139.356688 137.753933,139.318471 137.474819,139.242038 L137.865579,140.923567 L138.833178,140.923567 Z M142.219772,138.687898 L143.708384,138.11465 C143.429269,137.121019 143.038509,136.012739 142.554709,134.789809 L141.103312,135.191083 C141.549896,136.33758 141.922049,137.503185 142.219772,138.687898 Z M136.451397,140.312102 C137.270134,138.878981 137.884187,137.197452 138.330771,135.267516 L136.730512,134.923567 C136.395574,136.490446 135.818737,137.980892 135,139.356688 L136.451397,140.312102 Z M158.296789,126.917197 L159.897047,126.076433 C159.282994,124.968153 158.575903,123.955414 157.794382,123.019108 L156.175515,123.745223 C156.957037,124.681529 157.664128,125.732484 158.296789,126.917197 Z M167.991379,140.694268 C169.33113,140.694268 170.019613,139.949045 170.019613,138.477707 L170.019613,123.955414 L161.311229,123.955414 L161.311229,125.636943 L168.307709,125.636943 L168.307709,137.980892 C168.307709,138.66879 168.065809,139.031847 167.619226,139.031847 L166.484158,138.993631 L166.930742,140.694268 L167.991379,140.694268 Z M156.305769,140.866242 L156.305769,126.382166 L154.593865,126.382166 L154.593865,140.866242 L156.305769,140.866242 Z M165.646814,139.910828 L165.646814,137.426752 L167.098211,137.216561 L167.098211,137.216561 L167.098211,135.726115 C166.63302,135.783439 166.14922,135.840764 165.646814,135.917197 L165.646814,129.133758 L166.930742,129.133758 L166.930742,127.547771 L157.626913,127.547771 L157.626913,129.133758 L158.706157,129.133758 L158.706157,136.547771 L157.291975,136.624204 L157.478052,138.229299 C159.804009,138.076433 161.981105,137.866242 164.00934,137.636943 L164.00934,139.910828 L165.646814,139.910828 Z M164.00934,130.509554 L160.306416,130.509554 L160.306416,129.133758 L164.00934,129.133758 L164.00934,130.509554 Z M164.00934,133.33758 L160.306416,133.33758 L160.306416,131.961783 L164.00934,131.961783 L164.00934,133.33758 Z M160.306416,136.433121 L160.306416,134.789809 L164.00934,134.789809 L164.00934,136.10828 C162.855665,136.22293 161.608952,136.318471 160.306416,136.433121 Z M191.939435,140.923567 C193.223364,139.815287 194.284,138.477707 195.139953,136.929936 C195.754005,137.503185 196.293627,138.057325 196.758819,138.592357 L197.931101,137.178344 C197.391479,136.643312 196.702996,136.031847 195.884259,135.343949 C196.758819,133.165605 197.261226,130.624204 197.391479,127.700637 L197.391479,126.707006 L194.581723,126.707006 C194.749192,125.636943 194.916661,124.490446 195.102737,123.267516 L193.372225,123.095541 C193.223364,124.318471 193.037287,125.522293 192.851211,126.707006 L191.02766,126.707006 L191.02766,128.44586 L192.553488,128.44586 C192.199943,130.318471 191.790574,132.076433 191.34399,133.700637 C192.274373,134.426752 193.111718,135.133758 193.856024,135.783439 C193.074502,137.235669 192.051081,138.458599 190.804368,139.490446 L191.939435,140.923567 Z M206.732524,128.923567 L206.732524,123.859873 L198.452116,123.859873 L198.452116,128.923567 L206.732524,128.923567 Z M205.113658,127.433121 L200.08959,127.433121 L200.08959,125.350318 L205.113658,125.350318 L205.113658,127.433121 Z M194.544508,134.273885 C194.097924,133.929936 193.614125,133.566879 193.09311,133.184713 C193.502479,131.923567 193.893239,130.33758 194.265393,128.44586 L195.754005,128.44586 C195.605144,130.624204 195.214383,132.55414 194.544508,134.273885 Z M197.838063,140.942675 C199.754652,140.178344 201.150226,139.127389 202.006179,137.770701 C202.229471,137.388535 202.415547,136.968153 202.601624,136.509554 C203.606437,138.229299 205.113658,139.700637 207.086069,140.88535 L208.27696,139.452229 C206.267332,138.420382 204.77872,137.101911 203.811121,135.477707 L207.830376,135.477707 L207.830376,133.77707 L203.271499,133.77707 C203.327322,133.261146 203.364538,132.707006 203.401753,132.095541 L207.141892,132.095541 L207.141892,130.433121 L198.061355,130.433121 L198.061355,132.095541 L201.708456,132.095541 C201.671241,132.66879 201.615418,133.242038 201.540987,133.77707 L197.354264,133.77707 L197.354264,135.477707 L201.131619,135.477707 C201.001365,135.859873 200.852504,136.242038 200.666427,136.585987 C199.996551,137.732484 198.749838,138.66879 196.90768,139.433121 L197.838063,140.942675 Z M217.264459,140.770701 C218.529779,140.770701 219.181047,140.063694 219.181047,138.687898 L219.181047,132.286624 L225.823982,132.286624 L225.823982,130.509554 L219.181047,130.509554 L219.181047,126.993631 L217.394712,126.993631 L217.394712,130.509554 L212.538113,130.509554 C212.817228,129.191083 213.096343,127.719745 213.35685,126.076433 C218.008765,126 221.78612,125.56051 224.670307,124.757962 L223.832962,123.229299 C221.153459,124.070064 217.655219,124.509554 213.338243,124.528662 C212.854444,124.509554 212.370644,124.452229 211.924061,124.375796 C211.663553,126.66879 211.21697,129.305732 210.584309,132.286624 L217.394712,132.286624 L217.394712,138.229299 C217.394712,138.802548 217.134205,139.10828 216.650406,139.10828 C215.924707,139.10828 215.161793,139.070064 214.361664,138.993631 L214.752425,140.770701 L217.264459,140.770701 Z M224.447015,140.121019 L226.121704,139.261146 C225.116891,137.121019 224.074862,135.171975 222.995618,133.394904 L221.432574,134.159236 C222.511818,135.917197 223.516632,137.904459 224.447015,140.121019 Z M211.272793,140.063694 C212.500898,138.420382 213.580142,136.490446 214.510525,134.273885 L212.947482,133.490446 C212.054314,135.592357 210.97507,137.407643 209.728357,138.917197 L211.272793,140.063694 Z M251.11179,140.847134 L251.11179,133.203822 C251.707235,133.700637 252.284072,134.273885 252.86091,134.923567 L253.865723,133.356688 C253.046986,132.573248 252.153819,131.88535 251.18622,131.273885 C252.153819,129.936306 252.879517,128.598726 253.326101,127.242038 L253.326101,125.713376 L251.50255,125.713376 C251.279259,124.910828 250.944321,124.012739 250.534952,123.038217 L248.860263,123.535032 C249.232416,124.242038 249.548746,124.968153 249.827861,125.713376 L247.185574,125.713376 L247.185574,127.452229 L251.558373,127.452229 C250.721029,129.401274 249.12077,131.388535 246.757598,133.452229 L247.315827,135.363057 C248.060134,134.713376 248.748617,134.063694 249.381277,133.414013 L249.381277,140.847134 L251.11179,140.847134 Z M256.11725,134.617834 L256.11725,125.598726 L260.824987,125.598726 L260.824987,134.617834 L262.611323,134.617834 L262.611323,123.859873 L254.36813,123.859873 L254.36813,134.617834 L256.11725,134.617834 Z M253.437747,141 C255.447374,140.121019 256.898771,138.898089 257.810547,137.292994 C258.071054,136.757962 258.312954,136.165605 258.536245,135.496815 L258.536245,138.66879 C258.536245,139.910828 259.094475,140.541401 260.210935,140.541401 L262.053093,140.541401 C262.648538,140.541401 263.113729,140.388535 263.411452,140.101911 C263.709175,139.77707 263.932466,138.802548 264.06272,137.178344 L262.425246,136.624204 C262.369423,137.713376 262.294992,138.363057 262.183347,138.592357 C262.071701,138.783439 261.922839,138.878981 261.736763,138.878981 L260.731949,138.878981 C260.397011,138.878981 260.24815,138.66879 260.24815,138.286624 L260.24815,134.56051 L258.796753,134.56051 C259.075868,133.375796 259.243336,131.980892 259.299159,130.414013 L259.299159,126.802548 L257.587255,126.802548 L257.587255,130.414013 C257.512824,132.726115 257.140671,134.598726 256.470795,136.050955 C255.763704,137.407643 254.442561,138.535032 252.488756,139.414013 L253.437747,141 Z M273.347942,130.566879 L273.347942,128.789809 L270.8173,128.789809 L270.8173,127.031847 L273.106042,127.031847 L273.106042,125.33121 L270.8173,125.33121 L270.8173,123.248408 L269.086788,123.248408 L269.086788,128.789809 L268.026151,128.789809 L268.026151,124.815287 L266.332854,124.815287 L266.332854,128.789809 L265.402471,128.789809 L265.402471,130.566879 L273.347942,130.566879 Z M275.766937,136.528662 L275.766937,128.923567 L280.176952,128.923567 L280.176952,136.528662 L281.888857,136.528662 L281.888857,127.261146 L278.651124,127.261146 C278.725555,126.726115 278.781378,126.152866 278.818593,125.56051 L282.409871,125.56051 L282.409871,123.859873 L273.552626,123.859873 L273.552626,125.56051 L276.995043,125.56051 C276.93922,126.133758 276.883397,126.707006 276.808966,127.261146 L274.07364,127.261146 L274.07364,136.528662 L275.766937,136.528662 Z M273.720095,140.904459 C275.469215,140.273885 276.715928,139.375796 277.49745,138.229299 C278.278971,136.987261 278.706947,135.324841 278.781378,133.242038 L278.781378,129.878981 L277.069473,129.878981 L277.069473,133.242038 C276.995043,134.808917 276.678713,136.070064 276.101875,137.063694 C275.50643,137.961783 274.389971,138.707006 272.752497,139.318471 L273.720095,140.904459 Z M266.500323,140.789809 C270.482362,139.433121 272.88275,136.605096 273.701487,132.305732 L272.157052,131.942675 C271.877937,133.280255 271.394138,134.484076 270.705654,135.515924 L270.705654,131.121019 L269.012357,131.121019 L269.012357,136.165605 L270.221855,136.165605 C269.06818,137.522293 267.505137,138.515924 265.49551,139.127389 L266.500323,140.789809 Z M266.667792,136.796178 C267.356276,135.821656 267.914505,134.426752 268.342482,132.630573 L266.798046,132 C266.481716,133.490446 265.997917,134.694268 265.346648,135.611465 L266.667792,136.796178 Z M281.330627,140.923567 L282.633163,139.585987 C281.777211,138.55414 280.735182,137.503185 279.507077,136.452229 L278.316187,137.617834 C279.618723,138.802548 280.623536,139.89172 281.330627,140.923567 Z M303.194626,136.242038 C304.869315,135.993631 306.618435,135.515924 308.460593,134.828025 L308.460593,133.203822 C307.381349,133.624204 306.302105,133.949045 305.241468,134.197452 C306.246282,132.821656 307.474388,130.624204 308.963,127.605096 L307.325526,126.993631 C306.971981,127.757962 306.637043,128.484076 306.320713,129.152866 C305.725268,129.286624 305.111215,129.401274 304.51577,129.477707 C305.353114,128.025478 306.190459,126.133758 307.009196,123.802548 L305.371722,123.152866 C304.776277,125.254777 304.050578,127.184713 303.231841,128.904459 C303.008549,129.248408 302.76665,129.477707 302.468927,129.592357 L302.934119,131.273885 C303.827286,131.101911 304.701846,130.929936 305.539191,130.77707 C304.720454,132.343949 304.050578,133.452229 303.510956,134.082803 C303.287664,134.292994 303.027157,134.464968 302.729435,134.598726 L303.194626,136.242038 Z M317.689992,130.949045 L317.689992,129.286624 C318.062145,129.592357 318.452906,129.898089 318.89949,130.203822 L319.867088,128.675159 C317.596954,127.127389 315.978088,125.350318 315.047705,123.324841 L313.484661,123.324841 C312.330986,125.541401 310.674905,127.318471 308.553632,128.694268 L309.52123,130.22293 C309.949206,129.936306 310.358575,129.630573 310.767943,129.286624 L310.767943,130.949045 L317.689992,130.949045 Z M317.652777,129.248408 L310.805158,129.248408 C312.14491,128.101911 313.298585,126.66879 314.266183,124.929936 C315.047705,126.55414 316.182772,127.987261 317.652777,129.248408 Z M317.857461,140.980892 L319.439112,140.235669 C318.787844,138.55414 318.043538,136.968153 317.187585,135.496815 L315.64315,136.012739 C315.978088,136.624204 316.313025,137.292994 316.647963,138.019108 C315.047705,138.382166 313.391623,138.649682 311.698326,138.802548 C312.554278,137.656051 313.298585,136.299363 313.931245,134.732484 L319.476327,134.732484 L319.476327,132.993631 L309.130469,132.993631 L309.130469,134.732484 L312.107695,134.732484 C311.400603,136.471338 310.544651,137.923567 309.558445,139.10828 L310.023637,140.503185 C312.498455,140.33121 314.917451,139.987261 317.280624,139.471338 C317.4667,139.929936 317.671384,140.44586 317.857461,140.980892 Z M302.803865,140.178344 C305.036784,139.719745 307.009196,139.146497 308.758316,138.458599 L308.758316,136.719745 C306.971981,137.407643 304.925138,137.980892 302.580573,138.401274 L302.803865,140.178344 Z M338.065378,125.88535 L338.065378,124.127389 L321.430131,124.127389 L321.430131,125.88535 L338.065378,125.88535 Z M334.362454,136.585987 L334.362454,127.452229 L325.170271,127.452229 L325.170271,136.585987 L334.362454,136.585987 Z M323.756089,140.808917 L323.756089,139.929936 L335.776636,139.929936 L335.776636,140.808917 L337.488541,140.808917 L337.488541,128.961783 L335.776636,128.961783 L335.776636,138.210191 L323.756089,138.210191 L323.756089,129.019108 L322.044184,129.019108 L322.044184,140.808917 L323.756089,140.808917 Z M332.669157,131.254777 L330.529277,131.254777 L330.529277,129.095541 L332.669157,129.095541 L332.669157,131.254777 Z M329.003449,131.254777 L326.863568,131.254777 L326.863568,129.095541 L329.003449,129.095541 L329.003449,131.254777 Z M329.003449,134.942675 L326.863568,134.942675 L326.863568,132.745223 L329.003449,132.745223 L329.003449,134.942675 Z M332.669157,134.942675 L330.529277,134.942675 L330.529277,132.745223 L332.669157,132.745223 L332.669157,134.942675 Z M362.162296,140.866242 L362.162296,128.312102 C362.887995,126.898089 363.48344,125.426752 363.930024,123.878981 L362.348373,123.11465 C361.49242,126.248408 360.134061,129 358.310511,131.350318 L358.831525,133.165605 C359.389755,132.515924 359.929377,131.828025 360.431784,131.140127 L360.431784,140.866242 L362.162296,140.866242 Z M369.903082,140.847134 L369.903082,137.063694 L372.563977,137.063694 L372.563977,135.324841 L369.903082,135.324841 L369.903082,128.025478 C370.759034,131.522293 372.266255,134.675159 374.424743,137.484076 L375.55981,136.012739 C373.550183,133.681529 372.117393,131.006369 371.298657,128.025478 L374.834112,128.025478 L374.834112,126.286624 L369.903082,126.286624 L369.903082,123.191083 L368.17257,123.191083 L368.17257,126.286624 L363.464832,126.286624 L363.464832,128.025478 L366.758388,128.025478 C365.883828,131.312102 364.488253,134.025478 362.571665,136.165605 L363.48344,137.713376 C365.679144,135.191083 367.242187,131.961783 368.17257,128.025478 L368.17257,135.324841 L365.567498,135.324841 L365.567498,137.063694 L368.17257,137.063694 L368.17257,140.847134 L369.903082,140.847134 Z M392.176449,130.77707 L393.665062,129.726115 C392.846325,128.808917 391.655435,127.719745 390.129607,126.477707 L394,126.477707 L394,124.757962 L386.556937,124.757962 C386.37086,124.146497 386.184783,123.611465 385.980099,123.11465 L383.914649,123.43949 C384.137941,123.840764 384.361233,124.280255 384.547309,124.757962 L377.141461,124.757962 L377.141461,126.477707 L381.607299,126.477707 C380.751347,127.203822 380.007041,127.77707 379.37438,128.216561 C379.151088,128.33121 378.871974,128.407643 378.518428,128.44586 L378.909189,129.993631 C383.784395,129.821656 387.766434,129.611465 390.855306,129.343949 C391.339105,129.840764 391.785689,130.318471 392.176449,130.77707 Z M381.384007,128.44586 C382.109706,127.949045 382.928443,127.280255 383.840218,126.477707 L389.124793,126.477707 L388.324664,127.012739 C388.715425,127.356688 389.106186,127.681529 389.478339,128.025478 C387.170989,128.178344 384.472879,128.33121 381.384007,128.44586 Z M381.551476,140.847134 L381.551476,137.789809 L389.534162,137.789809 L389.534162,138.55414 C389.534162,138.936306 389.273655,139.146497 388.789856,139.146497 L387.00352,139.070064 L387.468712,140.828025 L389.366693,140.828025 C390.669229,140.828025 391.339105,140.197452 391.339105,138.936306 L391.339105,130.77707 L379.783749,130.77707 L379.783749,140.847134 L381.551476,140.847134 Z M389.534162,133.566879 L381.551476,133.566879 L381.551476,132.324841 L389.534162,132.324841 L389.534162,133.566879 Z M389.534162,136.261146 L381.551476,136.261146 L381.551476,135.095541 L389.534162,135.095541 L389.534162,136.261146 Z" id="新闻娱乐视频绘画体育" fill="#B9B6B6" fill-rule="nonzero"></path>
                <path d="M255.770689,55 L395.587178,55 C403.195726,55.1772794 407,59.4153464 407,67.7142011 C407,76.0130558 407,81.530908 407,84.2677578 C406.115631,88.7559193 401.032804,91 391.751517,91 C382.470231,91 337.143288,91 255.770689,91 L130.392817,91 C124.664506,90.1599147 121.868484,87.1859591 122.004749,82.0781331 C122.004749,74.3616038 123.140557,67.6444942 125.412171,61.9268042 C125.858756,57.3089347 129.267402,55 135.638108,55 C142.008815,55 182.053008,55 255.770689,55 Z" id="路径-252" fill="#F8CA9B"></path>
                <path d="M255.460013,153 L410.078011,153 C416.061484,153 419.053221,157.197394 419.053221,165.592182 C419.053221,173.98697 422.034014,211.510907 427.995599,278.163994 C428.140578,283.928396 424.703271,286.873731 417.683677,287 C406.63267,287 351.590462,287 252.557055,287 L114.425921,287 C108.675016,286.168135 105.867965,283.2228 106.004768,278.163994 C106.004768,270.521521 109.247588,231.086965 115.733229,159.860327 C116.181576,155.286776 119.603666,153 125.999501,153 C132.395335,153 175.548839,153 255.460013,153 Z" id="蒙版" fill="#FF9424"></path>
                <g id="路径-8备份" transform="translate(106.000000, 150.000000)">
                    <g transform="translate(0.410558, 0.000000)">
                        <mask id="mask-4" fill="white">
                            <use xlink:href="#path-3"></use>
                        </mask>
                        <use id="蒙版" fill="#FFC180" opacity="0.812941778" xlink:href="#path-3"></use>
                    </g>
                </g>
                <path d="M250.954797,354 L425.74036,354 C432.504287,354 435.88625,358.823871 435.88625,368.471612 C435.88625,378.119354 439.255842,421.243879 445.995025,497.845187 C446.158915,504.469947 442.273263,507.854885 434.338069,508 C421.845626,508 359.624001,508 247.673193,508 L91.5249547,508 C85.0239311,507.043976 81.8507429,503.659039 82.0053899,497.845187 C82.0053899,489.062046 85.6711868,443.741736 93.0027807,361.884257 C93.5096071,356.628086 97.3780572,354 104.608131,354 C111.838205,354 160.620427,354 250.954797,354 Z" id="路径-252备份-2" fill="#807D2E"></path>
                <g id="路径-8" transform="translate(80.000000, 350.000000)">
                    <mask id="mask-6" fill="white">
                        <use xlink:href="#path-5"></use>
                    </mask>
                    <use id="蒙版" fill="#FFE4C8" xlink:href="#path-5"></use>
                    <path d="M2.4497787,103.983714 C2.89345239,103.983714 58.6576954,36.5457731 110.289177,90.6941476 C144.710165,126.793064 199.378965,109.806859 274.295578,39.7355343 C304.403898,8.22464119 333.819675,14.0698059 362.542912,57.2710283 L371.236925,161.778832 L-3.70807807,159.215167 C0.10137732,122.394198 2.15399624,103.983714 2.4497787,103.983714 Z" fill="#CCC85E" mask="url(#mask-6)"></path>
                    <ellipse id="椭圆形" fill="#E98744" mask="url(#mask-6)" cx="106.684594" cy="34.1852937" rx="20.8433717" ry="20.5111762"></ellipse>
                </g>
                <g id="编组-2" transform="translate(115.000000, 295.000000)">
                    <g id="留言板,信息_jurassic-(1)" transform="translate(201.999526, 1.531534)" fill-rule="nonzero">
                        <path d="M22.0283016,0 L2.64339619,0 C1.18677475,0 0,1.18477873 0,2.6389503 L0,14.9540517 C0,16.4082233 1.18677475,17.593002 2.64339619,17.593002 L8.24684542,17.593002 L12.3358489,21.4414712 L16.4220989,17.593002 L22.0283016,17.593002 C23.4849231,17.593002 24.6716978,16.4082233 24.6716978,14.9540517 L24.6716978,2.6389503 C24.6716978,1.18477873 23.4849231,0 22.0283016,0 Z M22.9094337,14.9540517 C22.9094337,15.4378592 22.5156778,15.8337018 22.0283016,15.8337018 L15.7227003,15.8337018 L12.3358489,19.0224334 L8.946244,15.8337018 L2.64339619,15.8337018 C2.15602002,15.8337018 1.76226413,15.4378592 1.76226413,14.9540517 L1.76226413,2.6389503 C1.76226413,2.15239384 2.15602002,1.7593002 2.64339619,1.7593002 L22.0283016,1.7593002 C22.5156778,1.7593002 22.9094337,2.15239384 22.9094337,2.6389503 L22.9094337,14.9540517 Z" id="形状" fill="#9CD3A7"></path>
                        <path d="M6.83443911,7.65766828 C5.98394016,7.65766828 5.292458,8.3444654 5.292458,9.18920193 C5.292458,10.0363315 5.98394016,10.7207356 6.83443911,10.7207356 C7.68493807,10.7207356 8.37642023,10.0363315 8.37642023,9.18920193 C8.37642023,8.3444654 7.68493807,7.65766828 6.83443911,7.65766828 Z" id="形状" fill="#A0D5AB"></path>
                        <path d="M11.4603825,7.65766828 C10.6098835,7.65766828 9.91840134,8.3444654 9.91840134,9.18920193 C9.91840134,10.0363315 10.6098835,10.7207356 11.4603825,10.7207356 C12.3108814,10.7207356 13.0023636,10.0363315 13.0023636,9.18920193 C13.0023636,8.3444654 12.3108814,7.65766828 11.4603825,7.65766828 Z" id="形状备份" fill="#A0D5AB"></path>
                        <path d="M16.0863258,7.65766828 C15.2358268,7.65766828 14.5443447,8.3444654 14.5443447,9.18920193 C14.5443447,10.0363315 15.2358268,10.7207356 16.0863258,10.7207356 C16.9368248,10.7207356 17.6283069,10.0363315 17.6283069,9.18920193 C17.6283069,8.3444654 16.9368248,7.65766828 16.0863258,7.65766828 Z" id="形状备份-2" fill="#A0D5AB"></path>
                    </g>
                    <g id="收藏" transform="translate(240.215796, 0.000000)" fill="#FFDE23" fill-rule="nonzero">
                        <path d="M17.1101191,13.0154664 C16.502738,13.6321913 16.1641553,14.7088903 16.3088929,15.5774447 L17.1230421,20.5112444 L12.8687894,18.188247 C12.1115014,17.777097 11.0156307,17.7745273 10.2609273,18.188247 L6.00667456,20.5112444 L6.82082378,15.5774447 C6.96297682,14.7088903 6.62697873,13.6321913 6.01959756,13.0154664 L2.56398644,9.51555223 L7.33257472,8.79603977 C8.17515454,8.6675554 9.06167258,7.99943669 9.43902428,7.20797299 L11.5661507,2.73157764 L13.6906924,7.20797299 C14.0680441,7.99943669 14.9545622,8.6675554 15.797142,8.79603977 L20.5657303,9.51555223 L17.1101191,13.0154664 Z M22.6179032,10.2299253 C23.0702083,9.77252096 23.2330382,9.20462006 23.0650391,8.67269478 C22.8970401,8.14333919 22.4421504,7.78615264 21.816677,7.69107421 L16.0762789,6.82508958 C15.8669262,6.79425333 15.5205897,6.52957553 15.4249595,6.33170961 L12.858451,0.925087443 C12.5793141,0.336629042 12.1063322,0 11.5635661,0 C11.0233845,0 10.5504026,0.339198729 10.2712657,0.925087443 L7.70475722,6.33170961 C7.60912699,6.53214522 7.2627905,6.79425333 7.05085324,6.82508958 L1.3104551,7.69107421 C0.684981736,7.78615264 0.232676615,8.14333919 0.0646775697,8.67269478 C-0.103321475,9.20205037 0.0595083683,9.76995127 0.511813489,10.2299253 L4.6652668,14.4365035 C4.82034284,14.5932544 4.95474208,15.0223922 4.91597307,15.2433853 L3.93382481,21.1845024 C3.82785618,21.8320637 4.01653203,22.3922555 4.45591415,22.7186058 C4.68335901,22.8882052 4.94698828,22.9730048 5.22354055,22.9730048 C5.48200062,22.9730048 5.75596829,22.8984839 6.02476677,22.7520117 L11.1603683,19.9459131 C11.343875,19.8456953 11.7780879,19.8456953 11.9615946,19.9459131 L17.0946115,22.7520117 C17.6528853,23.0578045 18.2266666,23.0449561 18.6634642,22.7186058 C19.1028463,22.3896858 19.2941067,21.8320637 19.1881381,21.1845024 L18.2059898,15.2433853 C18.1698054,15.0223922 18.3042047,14.5932544 18.4566961,14.4365035 L22.6179032,10.2299253 L22.6179032,10.2299253 Z" id="形状"></path>
                    </g>
                    <g id="收藏-(1)" transform="translate(276.890086, 1.531534)" fill="#F88282" fill-rule="nonzero">
                        <path d="M16.3035548,0 C14.5960313,0 12.888902,0.66331362 11.5672239,1.98967329 L11.5648584,1.98726513 L11.5624928,1.98980707 C10.2409461,0.663447406 8.53342257,0 6.82616189,0 C5.07921275,0 3.33252644,0.694619668 1.99941488,2.08412658 C-0.636581953,4.83156677 -0.665494073,9.26511862 1.90886737,12.0521596 L1.90650184,12.0545678 L10.4504275,20.9603358 C10.7425032,21.2678378 11.1446819,21.4414712 11.5648584,21.4414712 C11.9850348,21.4414712 12.3872135,21.2678378 12.6792892,20.9603358 L21.2232149,12.0545678 L21.2208493,12.0521596 C23.7952108,9.26525241 23.7662987,4.83156677 21.1303018,2.08399279 C19.7974531,0.694619668 18.0503725,0 16.3035548,0 Z" id="路径"></path>
                    </g>
                    <g id="椭圆形" transform="translate(0.000000, 3.063067)">
                        <mask id="mask-8" fill="white">
                            <use xlink:href="#path-7"></use>
                        </mask>
                        <use id="蒙版" fill="#AFD1D2" xlink:href="#path-7"></use>
                        <ellipse fill="#639598" mask="url(#mask-8)" cx="12.3358489" cy="9.18920193" rx="4.62594334" ry="4.59460097"></ellipse>
                        <ellipse fill="#639598" mask="url(#mask-8)" cx="12.3358489" cy="26.0360721" rx="10.7938678" ry="10.7207356"></ellipse>
                    </g>
                    <rect id="矩形" fill="#639598" x="33.9235845" y="9.18920193" width="60.1372634" height="1.53153366"></rect>
                    <rect id="矩形备份" fill="#639598" x="33.9235845" y="18.3784039" width="37.0075467" height="1.53153366"></rect>
                </g>
                <g id="编组-2备份" transform="translate(83.000000, 515.000000)">
                    <g id="留言板,信息_jurassic-(1)" transform="translate(255.431647, 1.528013)" fill-rule="nonzero">
                        <path d="M23.3559488,0 L2.80271385,0 C1.25830174,0 0,1.26648761 0,2.82094687 L0,15.9853656 C0,17.5398249 1.25830174,18.8063125 2.80271385,18.8063125 L8.74388332,18.8063125 L13.0793313,22.9201933 L17.4118598,18.8063125 L23.3559488,18.8063125 C24.9003609,18.8063125 26.1586626,17.5398249 26.1586626,15.9853656 L26.1586626,2.82094687 C26.1586626,1.26648761 24.9003609,0 23.3559488,0 Z M24.2901867,15.9853656 C24.2901867,16.5025392 23.8726991,16.9256812 23.3559488,16.9256812 L16.6703084,16.9256812 L13.0793313,20.3343254 L9.4854347,16.9256812 L2.80271385,16.9256812 C2.28596349,16.9256812 1.8684759,16.5025392 1.8684759,15.9853656 L1.8684759,2.82094687 C1.8684759,2.30083479 2.28596349,1.88063125 2.80271385,1.88063125 L23.3559488,1.88063125 C23.8726991,1.88063125 24.2901867,2.30083479 24.2901867,2.82094687 L24.2901867,15.9853656 Z" id="形状" fill="#8BCC97"></path>
                        <path d="M7.2463512,8.18578333 C6.34459262,8.18578333 5.61143479,8.91994577 5.61143479,9.82294 C5.61143479,10.7284923 6.34459262,11.4600967 7.2463512,11.4600967 C8.14810978,11.4600967 8.88126761,10.7284923 8.88126761,9.82294 C8.88126761,8.91994577 8.14810978,8.18578333 7.2463512,8.18578333 Z" id="形状" fill="#9CD3A7"></path>
                        <path d="M12.1511004,8.18578333 C11.2493419,8.18578333 10.516184,8.91994577 10.516184,9.82294 C10.516184,10.7284923 11.2493419,11.4600967 12.1511004,11.4600967 C13.052859,11.4600967 13.7860169,10.7284923 13.7860169,9.82294 C13.7860169,8.91994577 13.052859,8.18578333 12.1511004,8.18578333 Z" id="形状备份" fill="#9CD3A7"></path>
                        <path d="M17.0558497,8.18578333 C16.1540911,8.18578333 15.4209333,8.91994577 15.4209333,9.82294 C15.4209333,10.7284923 16.1540911,11.4600967 17.0558497,11.4600967 C17.9576083,11.4600967 18.6907661,10.7284923 18.6907661,9.82294 C18.6907661,8.91994577 17.9576083,8.18578333 17.0558497,8.18578333 Z" id="形状备份-2" fill="#9CD3A7"></path>
                    </g>
                    <g id="收藏" transform="translate(295.439013, 0.000000)" fill="#FFDE23" fill-rule="nonzero">
                        <path d="M18.2124897,13.8512488 C17.5659761,14.5075765 17.2055793,15.6534153 17.3596421,16.5777434 L18.2262453,21.8283649 L13.6978996,19.3561973 C12.891821,18.9186455 11.7253456,18.9159108 10.9220182,19.3561973 L6.39367251,21.8283649 L7.26027572,16.5777434 C7.41158739,15.6534153 7.05394162,14.5075765 6.40742811,13.8512488 L2.72917892,10.1265892 L7.80499774,9.36087359 C8.70186329,9.22413865 9.6454979,8.513117 10.0471616,7.6708298 L12.3113344,2.9069847 L14.5727562,7.6708298 C14.9744199,8.513117 15.9180545,9.22413865 16.81492,9.36087359 L21.8907388,10.1265892 L18.2124897,13.8512488 Z" id="形状"></path>
                        <path d="M24.0751292,10.8868355 C24.5565754,10.4000591 24.729896,9.79569068 24.5510732,9.22960805 C24.3722503,8.66626012 23.8880529,8.28613701 23.2222816,8.18495315 L17.1120411,7.2633597 C16.8892003,7.23054331 16.5205501,6.94886935 16.4187586,6.73829755 L13.6868951,0.984491525 C13.389774,0.358245527 12.8863188,0 12.3085833,0 C11.733599,0 11.2301438,0.360980226 10.9330227,0.984491525 L8.20115921,6.73829755 C8.09936772,6.95160405 7.73071746,7.23054331 7.50512552,7.2633597 L1.39488509,8.18495315 C0.72911373,8.28613701 0.2476675,8.66626012 0.0688446153,9.22960805 C-0.10997827,9.79295598 0.0633423726,10.3973244 0.544788602,10.8868355 L4.96584055,15.3635372 C5.13090783,15.5303538 5.27396613,15.9870485 5.23269931,16.2222326 L4.18727322,22.5448559 C4.07447724,23.234 4.2753091,23.8301643 4.74299972,24.177471 C4.9850984,24.3579612 5.26571277,24.4482062 5.56008275,24.4482062 C5.83519488,24.4482062 6.12681374,24.3689 6.41293036,24.2130221 L11.8794084,21.2267312 C12.074738,21.1200779 12.5369264,21.1200779 12.732256,21.2267312 L18.1959829,24.2130221 C18.7902251,24.5384513 19.4009741,24.5247778 19.8659136,24.177471 C20.3336042,23.8274296 20.5371872,23.234 20.4243912,22.5448559 L19.3789651,16.2222326 C19.3404494,15.9870485 19.4835077,15.5303538 19.6458239,15.3635372 L24.0751292,10.8868355 L24.0751292,10.8868355 Z" id="路径"></path>
                    </g>
                    <g id="收藏-(1)" transform="translate(337.148712, 3.229974)" fill="#F88282" fill-rule="nonzero">
                        <path d="M15.6516277,0.346703136 C17.2794784,0.346703136 18.7954205,1.10853439 19.8281971,2.47102103 C20.408863,3.23728569 20.7848759,4.15972076 20.9102136,5.12892113 C21.1334713,6.85523333 20.6042834,8.53335008 19.4758249,9.7601172 L19.3696516,9.87595789 L10.6076265,19.0482517 L1.85637269,9.88754196 L1.81188902,9.8392035 C0.853111941,8.79678037 0.271466905,7.41913433 0.255240156,5.97212689 C0.238313977,4.46290872 0.793100946,3.03878339 1.80979073,1.97447924 C2.81249194,0.924905455 4.14560334,0.346703136 5.56348551,0.346703136 C6.9448575,0.346703136 8.25320912,0.898734042 9.24751718,1.90082745 L9.37187563,2.02567796 L10.5863639,3.29291782 L10.6101445,3.26903462 L10.6335054,3.29248878 L11.8436572,2.02567796 L11.967596,1.90082745 C12.9619041,0.898734042 14.2702557,0.346703136 15.6516277,0.346703136" id="形状"></path>
                    </g>
                    <g id="椭圆形" transform="translate(0.000000, 1.528013)">
                        <mask id="mask-10" fill="white">
                            <use xlink:href="#path-9"></use>
                        </mask>
                        <use id="蒙版" fill="#AFD1D2" xlink:href="#path-9"></use>
                        <ellipse fill="#639598" mask="url(#mask-10)" cx="13.0793313" cy="9.74108216" rx="4.90474924" ry="4.87054108"></ellipse>
                        <ellipse fill="#639598" mask="url(#mask-10)" cx="13.0793313" cy="27.5997328" rx="11.4444149" ry="11.3645959"></ellipse>
                    </g>
                    <rect id="矩形" fill="#639598" x="32.3136421" y="9.16807733" width="63.0885393" height="1.52801289"></rect>
                    <rect id="矩形备份" fill="#639598" x="32.3136421" y="19.8641676" width="38.4686215" height="1.52801289"></rect>
                </g>
                <polygon id="路径-423" fill="#FF9424" points="67 597.123485 67 600 457 600 457 597.123485 266.302806 590"></polygon>
                <polygon id="矩形" fill="#FFC180" points="70.8735394 583 451.534545 583 457 598 67 598"></polygon>
                <polygon id="路径-423备份" fill="#FE982E" points="58 643.123485 58 646 465 646 465 643.123485 269.170418 636"></polygon>
                <polygon id="矩形备份-2" fill="#FFC180" points="61.8713796 628 459.537592 628 465 643 58 643"></polygon>
                <ellipse id="椭圆形" fill="#FFFFFF" cx="268" cy="204.5" rx="25" ry="18.5"></ellipse>
                <polygon id="三角形" fill="#FF9424" points="262.301547 195 280 206.534391 262 216"></polygon>
            </g>
        </g>
    </g>
</svg>